<svg height="512pt" viewBox="0 0 512 512" width="512pt" xmlns="http://www.w3.org/2000/svg"><path d="m159.601562 192.800781h-96.402343c-8.28125 0-15 6.714844-15 15v48.199219c0 8.285156 6.71875 15 15 15h96.402343c8.285157 0 15-6.714844 15-15v-48.199219c0-8.285156-6.714843-15-15-15zm0 0" fill="#a8ebfa"/><path d="m448.800781 192.800781h-96.398437c-8.285156 0-15 6.714844-15 15v48.199219c0 8.285156 6.714844 15 15 15h96.398437c8.285157 0 15-6.714844 15-15v-48.199219c0-8.285156-6.714843-15-15-15zm0 0" fill="#76e2f8"/><path d="m159.601562 337.398438c-8.285156 0-15 6.71875-15 15h-66.402343c0-8.28125-6.714844-15-15-15-8.28125 0-15 6.71875-15 15v104.433593c0 30.421875 24.75 55.167969 55.167969 55.167969h16.066406c30.417968 0 55.167968-24.746094 55.167968-55.167969v-104.433593c0-8.28125-6.714843-15-15-15zm0 0" fill="#a8ebfa"/><path d="m448.800781 337.398438c-8.285156 0-15 6.71875-15 15h-66.398437c0-8.28125-6.71875-15-15-15-8.285156 0-15 6.71875-15 15v104.433593c0 30.421875 24.746094 55.167969 55.164062 55.167969h16.066406c30.421876 0 55.167969-24.746094 55.167969-55.167969v-104.433593c0-8.28125-6.714843-15-15-15zm0 0" fill="#76e2f8"/><path d="m456.835938 96.398438h-401.671876c-30.417968 0-55.164062 24.75-55.164062 55.167968v16.066406c0 30.421876 24.746094 55.167969 55.164062 55.167969h401.671876c30.417968 0 55.164062-24.746093 55.164062-55.167969v-16.066406c0-30.417968-24.746094-55.167968-55.164062-55.167968zm0 0" fill="#e7f0ef"/><path d="m512 167.632812v-16.066406c0-30.417968-24.746094-55.164062-55.164062-55.164062h-200.835938v126.398437h200.835938c30.417968 0 55.164062-24.746093 55.164062-55.167969zm0 0" fill="#c5e1e6"/><path d="m174.601562 96.398438-125.996093 126c2.152343.253906 4.339843.402343 6.5625.402343h89.433593l126.398438-126.402343zm0 0" fill="#ff9f00"/><path d="m456.835938 96.398438h-89.4375l-126.398438 126.402343h96.398438l126-125.996093c-2.15625-.257813-4.34375-.40625-6.5625-.40625zm0 0" fill="#ff641a"/><path d="m456.835938 241h-401.671876c-30.417968 0-55.164062 24.746094-55.164062 55.164062v16.070313c0 30.417969 24.746094 55.164063 55.164062 55.164063h401.671876c30.417968 0 55.164062-24.746094 55.164062-55.164063v-16.070313c0-30.417968-24.746094-55.164062-55.164062-55.164062zm0 0" fill="#e7f0ef"/><path d="m456.835938 367.398438c30.417968 0 55.164062-24.746094 55.164062-55.164063v-16.070313c0-30.417968-24.746094-55.164062-55.164062-55.164062h-200.835938v126.398438zm0 0" fill="#c5e1e6"/><path d="m174.601562 241-125.996093 125.996094c2.152343.257812 4.339843.402344 6.5625.402344h89.433593l126.398438-126.398438zm0 0" fill="#ff9f00"/><path d="m456.835938 241h-89.4375l-126.398438 126.398438h96.398438l125.996093-125.996094c-2.152343-.253906-4.339843-.402344-6.558593-.402344zm0 0" fill="#ff641a"/><path d="m111.398438 0c-34.847657 0-63.199219 28.351562-63.199219 63.199219 0 34.847656 28.351562 63.199219 63.199219 63.199219 34.847656 0 63.199218-28.351563 63.199218-63.199219 0-34.847657-28.351562-63.199219-63.199218-63.199219zm0 0" fill="#fecc29"/><path d="m400.601562 0c-34.847656 0-63.203124 28.351562-63.203124 63.199219 0 34.847656 28.355468 63.199219 63.199218 63.199219 34.851563 0 63.203125-28.351563 63.203125-63.199219 0-34.847657-28.351562-63.199219-63.199219-63.199219zm0 0" fill="#feac01"/></svg>