<svg id="Capa_1" enable-background="new 0 0 512 512" height="512" viewBox="0 0 512 512" width="512" xmlns="http://www.w3.org/2000/svg"><g><path d="m256 222.5 25 95.501-25 193.999c-13.67-.05-25.56-7.97-30.32-20.22l-82.89-213.56-13.69-35.28c-.67-1.74-1.02-3.58-1.02-5.43 0-8.29 6.72-15.01 15-15.01z" fill="#fff492"/><path d="m382.9 242.91-19.68 50.84-44.37 114.65-32.26 83.34c-4.75 12.29-16.7 20.25-30.43 20.26h-.16v-289.5h112.92c4.94 0 9.57 2.44 12.37 6.52 2.79 4.08 3.4 9.28 1.61 13.89z" fill="#ffcf57"/><path d="m256 338.12 10 45.429-10 128.451c-13.67-.05-25.56-7.97-30.32-20.22l-82.89-213.56c34.83 3.72 77.72 29.79 113.21 59.9z" fill="#ff9c4a"/><path d="m318.85 408.4-32.26 83.34c-4.75 12.29-16.7 20.25-30.43 20.26h-.16v-173.88c28.22 23.94 51.75 50.43 62.85 70.28z" fill="#ff664d"/><path d="m256 0 19 86.165-19 123.835c-11.54 0-22.64-1.87-33.03-5.33-41.77-13.87-71.97-53.31-71.97-99.67 0-57.9 47.1-105 105-105z" fill="#ff9c4a"/><path d="m361 105c0 57.9-47.1 105-105 105v-210c54.64 0 99.66 41.95 104.55 95.33.3 3.18.45 6.41.45 9.67z" fill="#ff664d"/><path d="m256 118.2v153.6c-18.76 17.49-43.91 28.2-71.52 28.2-57.9 0-105-47.1-105-105s47.1-105 105-105c27.61 0 52.76 10.71 71.52 28.2z" fill="#a4e786"/><path d="m256 118.2 19 75.799-19 77.801c-14.13-13.15-24.63-30.15-29.82-49.3-1.57-5.76-2.66-11.72-3.21-17.83-.3-3.18-.45-6.41-.45-9.67 0-30.29 12.89-57.62 33.48-76.8z" fill="#ecf2ff"/><path d="m432.52 195c0 45.37-28.92 84.11-69.3 98.75-11.15 4.04-23.17 6.25-35.7 6.25-27.61 0-52.76-10.71-71.52-28.2v-153.6c18.76-17.49 43.91-28.2 71.52-28.2 11.54 0 22.64 1.87 33.03 5.33 41.77 13.87 71.97 53.31 71.97 99.67z" fill="#deddf4"/></g></svg>