<svg height="472pt" viewBox="-100 0 472 472" width="472pt" xmlns="http://www.w3.org/2000/svg"><path d="m64 184h48v288h-48zm0 0" fill="#af8484"/><path d="m32 472h-32v-144l32 16zm0 0" fill="#af8484"/><path d="m73.328125 8c-10.285156.035156-20.464844 2.09375-29.953125 6.0625-22.3125 10.792969-33.019531 36.574219-24.917969 60 6.3125 19.488281 6.3125 40.46875 0 59.953125-8.085937 23.445313 2.65625 49.234375 25 60 9.554688 3.96875 19.796875 6 30.144531 5.984375 48.839844 0 88.222657-45.039062 86.335938-99.777344-1.761719-50.925781-40.738281-92.382812-86.609375-92.222656zm0 0" fill="#7fcac9"/><path d="m73.601562 176c-4.417968 0-8-3.582031-8-8s3.582032-8 8-8c11.460938-.210938 22.339844-5.097656 30.109376-13.527344 11.234374-12.160156 17.09375-28.339844 16.25-44.871094-1-29.058593-22.304688-53.601562-46.511719-53.601562-4.417969 0-8-3.582031-8-8s3.582031-8 8-8c32.582031 0 61.214843 31.625 62.503906 69.054688.976563 20.875-6.503906 41.261718-20.753906 56.546874-10.769531 11.558594-25.800781 18.207032-41.597657 18.398438zm0 0" fill="#238892"/><path d="m32 440h32v32h-32zm0 0" fill="#f6bf9b"/><path d="m0 328 64-80v56l-32 40zm0 0" fill="#f6bf9b"/><path d="m264 40c-17.671875 0-32-14.328125-32-32 0-4.417969-3.582031-8-8-8s-8 3.582031-8 8c0 17.671875-14.328125 32-32 32-4.417969 0-8 3.582031-8 8s3.582031 8 8 8c17.671875 0 32 14.328125 32 32 0 4.417969 3.582031 8 8 8s8-3.582031 8-8c0-17.671875 14.328125-32 32-32 4.417969 0 8-3.582031 8-8s-3.582031-8-8-8zm-40 21.519531c-3.5625-5.359375-8.160156-9.957031-13.519531-13.519531 5.359375-3.5625 9.957031-8.160156 13.519531-13.519531 3.5625 5.359375 8.160156 9.957031 13.519531 13.519531-5.359375 3.5625-9.957031 8.160156-13.519531 13.519531zm0 0" fill="#fdbd40"/></svg>