<?xml version="1.0" encoding="iso-8859-1"?>
<!-- Generator: Adobe Illustrator 19.0.0, SVG Export Plug-In . SVG Version: 6.00 Build 0)  -->
<svg version="1.1" id="Capa_1" xmlns="http://www.w3.org/2000/svg" xmlns:xlink="http://www.w3.org/1999/xlink" x="0px" y="0px"
	 viewBox="0 0 512 512" style="enable-background:new 0 0 512 512;" xml:space="preserve">
<circle style="fill:#00EED0;" cx="256" cy="256" r="256"/>
<path style="fill:#00AB94;" d="M509.538,291.499L303.003,84.963L189.668,197.795l27.768,27.77l-7.329,210.759l74.12,74.121
	C400.623,497.675,493.529,406.888,509.538,291.499z"/>
<path style="fill:#F77E00;" d="M270.734,287.451l-3.794-22.539c15.666-2.633,30.484-8.156,44.063-16.402l11.872,19.526
	C306.808,277.8,289.268,284.327,270.734,287.451z"/>
<polygon style="fill:#FFBD86;" points="328.812,286.581 260.648,216.821 277.028,200.888 345.058,270.514 "/>
<polygon style="fill:#FDBF00;" points="280.263,204.051 280.263,300.788 251.241,342.149 245.986,336.665 211.709,300.788 
	211.709,202.907 279.121,202.907 "/>
<polygon style="fill:#FF9F00;" points="280.263,204.051 280.263,300.788 251.241,342.149 245.986,336.665 245.986,202.907 
	279.121,202.907 "/>
<path style="fill:#FED2A4;" d="M245.986,61c-44.103,0-79.98,35.877-79.98,79.98c0,34.049,21.481,64.213,53.016,75.181
	c8.455,3.2,17.367,4.799,26.965,4.799c7.997,0,16.225-1.371,23.08-3.428c0.914-0.457,2.513-0.685,4.342-1.6
	c31.535-11.197,52.558-41.133,52.558-74.952C325.967,96.877,290.089,61,245.986,61z"/>
<path style="fill:#FFBD86;" d="M325.967,140.98c0,33.82-21.023,63.755-52.558,74.952c-1.829,0.915-3.428,1.142-4.342,1.6
	c-6.855,2.057-15.083,3.428-23.08,3.428V61C290.089,61,325.967,96.877,325.967,140.98z"/>
<path style="fill:#FDBF00;" d="M303.115,140.98c0,23.994-15.081,45.474-37.248,53.472l-2.513,0.915
	c-6.17,1.827-11.883,2.742-17.367,2.742c-6.626,0-13.026-1.142-18.738-3.428c-23.309-7.997-38.39-29.478-38.39-53.701
	c0-31.535,25.594-57.129,57.129-57.129S303.115,109.445,303.115,140.98z"/>
<path style="fill:#FF9F00;" d="M263.353,195.367c-6.17,1.827-11.883,2.742-17.367,2.742V83.852
	c31.535,0,57.129,25.594,57.129,57.129c0,23.994-15.081,45.474-37.248,53.472L263.353,195.367z"/>
<path style="fill:#913F02;" d="M284.605,433.404C275.008,444.601,260.84,451,245.986,451s-29.022-6.399-38.619-17.596
	c-9.826-11.197-14.168-26.051-11.883-40.675l16.225-91.941h68.555l16.225,91.483C298.773,407.353,294.431,422.207,284.605,433.404z"
	/>
<path style="fill:#6F2E01;" d="M296.489,392.271c2.285,15.081-2.057,29.935-11.883,41.133C275.008,444.601,260.84,451,245.986,451
	V300.788h34.277L296.489,392.271z"/>
<g>
</g>
<g>
</g>
<g>
</g>
<g>
</g>
<g>
</g>
<g>
</g>
<g>
</g>
<g>
</g>
<g>
</g>
<g>
</g>
<g>
</g>
<g>
</g>
<g>
</g>
<g>
</g>
<g>
</g>
</svg>
