<?xml version="1.0" encoding="iso-8859-1"?>
<!-- Generator: Adobe Illustrator 19.0.0, SVG Export Plug-In . SVG Version: 6.00 Build 0)  -->
<svg version="1.1" id="Capa_1" xmlns="http://www.w3.org/2000/svg" xmlns:xlink="http://www.w3.org/1999/xlink" x="0px" y="0px"
	 viewBox="0 0 512 512" style="enable-background:new 0 0 512 512;" xml:space="preserve">
<path style="fill:#72DAFE;" d="M512,256c0,59.047-19.989,113.424-53.572,156.735C411.596,473.13,338.338,512,256,512
	s-155.596-38.87-202.428-99.265C19.989,369.424,0,315.047,0,256C0,114.615,114.615,0,256,0S512,114.615,512,256z"/>
<path style="fill:#9BE5F9;" d="M459.585,203.585c0,46.958-15.896,90.201-42.604,124.644c-37.243,48.03-95.503,78.941-160.982,78.941
	s-123.738-30.911-160.982-78.941c-26.707-34.443-42.604-77.686-42.604-124.644C52.415,91.147,143.563,0,256,0
	S459.585,91.147,459.585,203.585z"/>
<path style="fill:#F7EFC6;" d="M458.428,412.735C411.596,473.13,338.338,512,256,512c-51.545,0-99.527-15.235-139.703-41.441
	c-24.001-15.663-45.213-35.234-62.725-57.825c46.832-60.395,120.09-99.265,202.428-99.265S411.596,352.34,458.428,412.735z"/>
<path style="fill:#F0BF75;" d="M256,313.469c-67.521,0-118.523,90.415-139.703,157.09c-24.001-15.663-45.213-35.234-62.725-57.825
	C100.404,352.34,173.662,313.469,256,313.469z"/>
<path style="fill:#F74C83;" d="M364.322,429.664L364.322,429.664c-5.915,2.676-12.878,0.05-15.554-5.865l-15.504-34.271
	c-2.676-5.915-0.05-12.878,5.865-15.554l0,0c5.915-2.676,12.878-0.05,15.554,5.865l15.504,34.271
	C372.862,420.024,370.238,426.988,364.322,429.664z"/>
<g>
	<path style="fill:#BC7256;" d="M198.194,425.343L198.194,425.343c-3.665-5.358-2.294-12.673,3.065-16.338l31.045-21.239
		c5.358-3.665,12.673-2.294,16.338,3.065l0,0c3.665,5.358,2.294,12.673-3.065,16.338l-31.045,21.239
		C209.174,432.074,201.86,430.702,198.194,425.343z"/>
	<path style="fill:#BC7256;" d="M330.986,108.106L330.986,108.106c-3.665-5.358-2.294-12.673,3.065-16.338l31.045-21.239
		c5.358-3.666,12.673-2.294,16.338,3.065l0,0c3.665,5.358,2.294,12.673-3.065,16.338l-31.045,21.239
		C341.966,114.836,334.652,113.463,330.986,108.106z"/>
	<path style="fill:#BC7256;" d="M127.223,89.553L127.223,89.553c-6.106,2.203-12.843-0.962-15.045-7.069L99.415,47.101
		c-2.203-6.106,0.962-12.843,7.069-15.045l0,0c6.106-2.203,12.843,0.962,15.045,7.069l12.762,35.383
		C136.494,80.614,133.329,87.35,127.223,89.553z"/>
</g>
<path style="fill:#FFD255;" d="M268.479,483.03L268.479,483.03c-6.264-1.703-9.962-8.162-8.259-14.427l9.868-36.297
	c1.703-6.264,8.162-9.962,14.427-8.259l0,0c6.264,1.703,9.962,8.162,8.259,14.427l-9.868,36.297
	C281.203,481.035,274.743,484.733,268.479,483.03z"/>
<g>
	<path style="fill:#F74C83;" d="M213.625,116.289L213.625,116.289c-6.264-1.703-9.962-8.162-8.259-14.427l9.868-36.297
		c1.703-6.264,8.162-9.962,14.427-8.259l0,0c6.264,1.703,9.962,8.162,8.259,14.427l-9.868,36.297
		C226.348,114.294,219.889,117.992,213.625,116.289z"/>
	<path style="fill:#F74C83;" d="M188.729,360.286L188.729,360.286c-6.492,0-11.754-5.263-11.754-11.754v-37.614
		c0-6.492,5.263-11.754,11.754-11.754l0,0c6.492,0,11.754,5.263,11.754,11.754v37.614
		C200.485,355.023,195.221,360.286,188.729,360.286z"/>
</g>
<path style="fill:#FFD255;" d="M451.834,97.582L451.834,97.582c-6.286,1.623-12.697-2.158-14.319-8.443l-9.402-36.421
	c-1.623-6.286,2.158-12.697,8.443-14.319l0,0c6.286-1.623,12.697,2.158,14.319,8.443l9.402,36.421
	C461.899,89.549,458.12,95.959,451.834,97.582z"/>
<path style="fill:#F74C83;" d="M387.773,247.442L387.773,247.442c-6.492,0-11.754-5.263-11.754-11.754v-37.614
	c0-6.492,5.263-11.754,11.754-11.754l0,0c6.492,0,11.754,5.263,11.754,11.754v37.614
	C399.527,242.18,394.265,247.442,387.773,247.442z"/>
<g>
	<path style="fill:#FFD255;" d="M295.106,260.578L295.106,260.578c-6.286,1.623-12.697-2.158-14.319-8.443l-9.402-36.421
		c-1.623-6.286,2.158-12.697,8.443-14.319l0,0c6.286-1.623,12.697,2.158,14.319,8.443l9.402,36.421
		C305.173,252.545,301.392,258.955,295.106,260.578z"/>
	<path style="fill:#FFD255;" d="M107.623,235.512L107.623,235.512c-5.623-3.245-7.548-10.434-4.303-16.057l18.807-32.575
		c3.245-5.623,10.434-7.548,16.057-4.303l0,0c5.623,3.245,7.548,10.434,4.303,16.057l-18.807,32.575
		C120.435,236.831,113.246,238.758,107.623,235.512z"/>
	<path style="fill:#FFD255;" d="M114.881,399.069L114.881,399.069c4.59-4.59,12.033-4.59,16.623,0l26.598,26.598
		c4.59,4.59,4.59,12.033,0,16.623l0,0c-4.59,4.59-12.033,4.59-16.623,0l-26.598-26.598
		C110.291,411.103,110.291,403.661,114.881,399.069z"/>
</g>
<g>
</g>
<g>
</g>
<g>
</g>
<g>
</g>
<g>
</g>
<g>
</g>
<g>
</g>
<g>
</g>
<g>
</g>
<g>
</g>
<g>
</g>
<g>
</g>
<g>
</g>
<g>
</g>
<g>
</g>
</svg>
