<svg id="icons" enable-background="new 0 0 64 64" height="512" viewBox="0 0 64 64" width="512" xmlns="http://www.w3.org/2000/svg"><path d="m48.5 17h-6-3-6-3-6-3-6l-1 1.001v41.999h35v-41.999z" fill="#ed5565"/><path d="m14.5 60h35l1 3h-37z" fill="#da4453"/><path d="m32 27c4.7 0 8.5 3.81 8.5 8.5 0 4.689-3.8 8.5-8.5 8.5-4.69 0-8.5-3.811-8.5-8.5 0-4.69 3.81-8.5 8.5-8.5z" fill="#ffce54"/><path d="m36.502 37h-9.003c-.553 0-1-.447-1-1s.447-1 1-1h9.003c.553 0 1 .447 1 1s-.447 1-1 1z" fill="#f6bb42"/><path d="m34.501 40h-5.001c-.553 0-1-.447-1-1s.447-1 1-1h5.001c.553 0 1 .447 1 1s-.447 1-1 1z" fill="#f6bb42"/><path d="m42.508 49h-21.015c-.553 0-1-.447-1-1s.447-1 1-1h21.015c.553 0 1 .447 1 1s-.447 1-1 1z" fill="#da4453"/><path d="m36.503 52h-9.005c-.553 0-1-.447-1-1s.447-1 1-1h9.005c.553 0 1 .447 1 1s-.447 1-1 1z" fill="#da4453"/><path d="m32.031 33.002c-.553 0-1.005-.447-1.005-1s.442-1 .994-1h.011c.552 0 1 .447 1 1s-.448 1-1 1z" fill="#f6bb42"/><path d="m48.522 19h-33.022c-.553 0-1-.447-1-1s.447-1 1-1h33.022c.553 0 1 .447 1 1s-.447 1-1 1z" fill="#ed5565"/><path d="m23 8v9h-6v-3c3.32 0 6-2.681 6-6z" fill="#ffd2a6"/><path d="m17 7v7c3.32 0 6-2.681 6-6v-6c0-.089-.029-.17-.052-.252-.367 2.964-2.882 5.252-5.948 5.252z" fill="#844747"/><path d="m22.948 1.748c-.114-.426-.487-.748-.948-.748h-4c-.55 0-1 .45-1 1v5c3.066 0 5.581-2.288 5.948-5.252z" fill="#ffd2a6"/><path d="m31 8v9h-6v-3c3.32 0 6-2.681 6-6z" fill="#ffd2a6"/><path d="m25 7v7c3.32 0 6-2.681 6-6v-6c0-.089-.029-.17-.052-.252-.367 2.964-2.882 5.252-5.948 5.252z" fill="#844747"/><path d="m30.948 1.748c-.114-.426-.487-.748-.948-.748h-4c-.55 0-1 .45-1 1v5c3.066 0 5.581-2.288 5.948-5.252z" fill="#ffd2a6"/><path d="m39 8v9h-6v-3c3.32 0 6-2.681 6-6z" fill="#ffd2a6"/><path d="m33 7v7c3.32 0 6-2.681 6-6v-6c0-.089-.029-.17-.052-.252-.367 2.964-2.882 5.252-5.948 5.252z" fill="#844747"/><path d="m38.948 1.748c-.114-.426-.487-.748-.948-.748h-4c-.55 0-1 .45-1 1v5c3.066 0 5.581-2.288 5.948-5.252z" fill="#ffd2a6"/><path d="m47 8v9h-6v-3c3.32 0 6-2.681 6-6z" fill="#ffd2a6"/><path d="m41 7v7c3.32 0 6-2.681 6-6v-6c0-.089-.029-.17-.052-.252-.367 2.964-2.882 5.252-5.948 5.252z" fill="#844747"/><path d="m46.948 1.748c-.114-.426-.487-.748-.948-.748h-4c-.55 0-1 .45-1 1v5c3.066 0 5.581-2.288 5.948-5.252z" fill="#ffd2a6"/></svg>