<svg xmlns="http://www.w3.org/2000/svg" xmlns:xlink="http://www.w3.org/1999/xlink" xmlns:svgjs="http://svgjs.com/svgjs" version="1.1" width="128" height="512" x="0" y="0" viewBox="0 0 128 512" style="enable-background:new 0 0 128 512" class=""><g style="&#10;    transform: translateX(-200px);&#10;"><g xmlns="http://www.w3.org/2000/svg"><path d="m312.36 11.36-19.43 67.07 19.43 28.73v96.09l-19.43 64.43 19.43 31.57v96.01l-15.99 102.03-40.37 3.58-56.36 4.99v-95.93l14.6-69.78-14.6-26.22v-96.29l14.6-68.9-14.6-26.95v-121.79h112.72z" fill="#b46615" data-original="#b46615" style="" class=""/><path d="m312.36 11.36-19.43 67.07 19.43 28.73v96.09l-19.43 64.43 19.43 31.57v96.01l-15.99 102.03-40.37 3.58v-500.87h56.36z" fill="#b46615" data-original="#874208" style="" class=""/><g fill="#ffdca9"><path d="m312.36 11.36v95.8l-56.36 55.24-56.36 55.24v-95.85l56.36-55.21z" fill="#ffdca9" data-original="#ffdca9" style="" class=""/><path d="m312.36 203.25v96l-56.36 55.34-56.36 55.34v-96l56.36-55.34z" fill="#ffdca9" data-original="#ffdca9" style="" class=""/><path d="m312.36 395.26v116.74h-112.72v-6.14z" fill="#ffdca9" data-original="#ffdca9" style="" class=""/></g><path d="m312.36 11.36v95.8l-56.36 55.24v-95.82z" fill="#ffdca9" data-original="#fcba67" style="" class=""/><path d="m256 258.59 56.36-55.34v96l-56.36 55.34z" fill="#ffdca9" data-original="#fcba67" style="" class=""/><path d="m256 450.56 56.36-55.3v116.74h-56.36z" fill="#ffdca9" data-original="#fcba67" style="" class=""/></g></g></svg>